<?xml version="1.0" encoding="UTF-8"?>
<!DOCTYPE svg PUBLIC "-//W3C//DTD SVG 1.1//EN" "http://www.w3.org/Graphics/SVG/1.1/DTD/svg11.dtd">
<svg xmlns="http://www.w3.org/2000/svg" version="1.1" width="500px" height="500px" style="shape-rendering:geometricPrecision; text-rendering:geometricPrecision; image-rendering:optimizeQuality; fill-rule:evenodd; clip-rule:evenodd" xmlns:xlink="http://www.w3.org/1999/xlink">
<g><path style="opacity:1" fill="#082131" d="M -0.5,-0.5 C 75.8333,-0.5 152.167,-0.5 228.5,-0.5C 148.347,8.64528 85.5132,46.3119 40,112.5C 16.6062,148.849 3.10624,188.515 -0.5,231.5C -0.5,154.167 -0.5,76.8333 -0.5,-0.5 Z"/></g>
<g><path style="opacity:1" fill="#060587" d="M 228.5,-0.5 C 241.5,-0.5 254.5,-0.5 267.5,-0.5C 365.59,10.7775 436.09,60.7775 479,149.5C 490.579,176.481 497.413,204.481 499.5,233.5C 499.5,243.833 499.5,254.167 499.5,264.5C 491.467,351.764 450.467,418.597 376.5,465C 342.285,484.685 305.618,496.185 266.5,499.5C 255.167,499.5 243.833,499.5 232.5,499.5C 150.705,491.531 86.5381,453.864 40,386.5C 16.3664,349.1 2.86642,308.433 -0.5,264.5C -0.5,253.5 -0.5,242.5 -0.5,231.5C 3.10624,188.515 16.6062,148.849 40,112.5C 85.5132,46.3119 148.347,8.64528 228.5,-0.5 Z"/></g>
<g><path style="opacity:1" fill="#082131" d="M 267.5,-0.5 C 344.833,-0.5 422.167,-0.5 499.5,-0.5C 499.5,77.5 499.5,155.5 499.5,233.5C 497.413,204.481 490.579,176.481 479,149.5C 436.09,60.7775 365.59,10.7775 267.5,-0.5 Z"/></g>
<g><path style="opacity:1" fill="#092231" d="M 235.5,5.5 C 334.832,4.2331 410.332,45.5664 462,129.5C 498.142,196.543 503.142,265.876 477,337.5C 445.796,413.038 390.963,462.205 312.5,485C 209.337,507.835 123.837,479.002 56,398.5C 10.0643,335.159 -4.26903,265.159 13,188.5C 34.7173,113.453 80.8839,59.286 151.5,26C 178.551,14.7366 206.551,7.90324 235.5,5.5 Z"/></g>
<g><path style="opacity:1" fill="#c39776" d="M 219.5,23.5 C 233.981,21.3182 243.814,26.9849 249,40.5C 248.842,62.9756 237.675,71.809 215.5,67C 203.541,60.0487 199.708,49.882 204,36.5C 207.818,30.5123 212.984,26.179 219.5,23.5 Z"/></g>
<g><path style="opacity:1" fill="#c39776" d="M 267.5,23.5 C 267.735,22.9033 268.235,22.5699 269,22.5C 272.032,22.7671 274.699,23.7671 277,25.5C 279.257,36.9359 281.924,48.2692 285,59.5C 291.538,49.0583 298.538,39.0583 306,29.5C 308.226,29.9784 310.392,30.645 312.5,31.5C 304.029,44.4699 295.362,57.3033 286.5,70C 283.196,70.6338 280.363,69.8004 278,67.5C 275.098,52.5639 271.598,37.8972 267.5,23.5 Z"/></g>
<g><path style="opacity:1" fill="#0c2332" d="M 221.5,30.5 C 237.81,30.7722 243.643,38.7722 239,54.5C 232.066,62.095 224.232,63.2617 215.5,58C 207.202,46.4104 209.202,37.2437 221.5,30.5 Z"/></g>
<g><path style="opacity:1" fill="#c39776" d="M 328.5,37.5 C 329.873,37.3433 331.207,37.51 332.5,38C 342.723,42.9432 352.723,48.1099 362.5,53.5C 361.752,55.3325 360.752,56.9991 359.5,58.5C 355.269,56.3687 350.936,54.8687 346.5,54C 341.538,64.0906 336.705,74.2573 332,84.5C 329.731,85.5947 327.564,85.2614 325.5,83.5C 324.386,82.277 324.219,80.9437 325,79.5C 330.106,69.6221 334.939,59.6221 339.5,49.5C 335.016,47.4252 330.683,45.0919 326.5,42.5C 327.456,40.9246 328.123,39.258 328.5,37.5 Z"/></g>
<g><path style="opacity:1" fill="#c49776" d="M 163.5,38.5 C 167.514,38.3345 171.514,38.5012 175.5,39C 176.428,39.3879 177.095,40.0546 177.5,41C 176.971,42.5589 176.304,44.0589 175.5,45.5C 167.426,43.9427 160.593,46.276 155,52.5C 150.183,62.6931 152.683,70.5265 162.5,76C 168.226,77.1044 173.56,76.1044 178.5,73C 179.899,71.9384 180.899,70.605 181.5,69C 180.125,65.0428 178.458,61.2095 176.5,57.5C 178.688,55.1296 181.188,54.4629 184,55.5C 186.263,60.1242 188.43,64.7909 190.5,69.5C 183.954,80.5184 174.288,85.3517 161.5,84C 148.669,78.8469 143.169,69.3469 145,55.5C 148.833,47.1621 155,41.4954 163.5,38.5 Z"/></g>
<g><path style="opacity:1" fill="#ea5e08" d="M 125.5,92.5 C 208.501,92.3333 291.501,92.5 374.5,93C 395.004,106.085 415.338,119.418 435.5,133C 415.339,146.914 395.006,160.581 374.5,174C 291.5,174.667 208.5,174.667 125.5,174C 104.994,160.581 84.6608,146.914 64.5,133C 84.8987,119.477 105.232,105.977 125.5,92.5 Z"/></g>
<g><path style="opacity:1" fill="#060783" d="M 59.5,164.5 C 60.9733,165.072 62.3066,165.905 63.5,167C 48.8402,199.977 43.3402,234.477 47,270.5C 48.503,280.184 50.003,289.85 51.5,299.5C 50.1667,299.5 48.8333,299.5 47.5,299.5C 37.3144,253.158 41.3144,208.158 59.5,164.5 Z"/></g>
<g><path style="opacity:1" fill="#060784" d="M 438.5,164.5 C 448.048,183.996 453.882,204.662 456,226.5C 457.748,251.066 456.248,275.4 451.5,299.5C 448.757,299.923 447.424,298.756 447.5,296C 457.603,251.617 453.603,208.617 435.5,167C 436.571,166.148 437.571,165.315 438.5,164.5 Z"/></g>
<g><path style="opacity:1" fill="#fbfbfc" d="M 124.5,192.5 C 207.501,192.333 290.501,192.5 373.5,193C 393.833,206.5 414.167,220 434.5,233.5C 414.167,247 393.833,260.5 373.5,274C 290.5,274.667 207.5,274.667 124.5,274C 104.29,260.735 84.2903,247.235 64.5,233.5C 84.5179,219.808 104.518,206.141 124.5,192.5 Z"/></g>
<g><path style="opacity:1" fill="#e8ad7b" d="M 253.5,195.5 C 251.832,197.34 250.332,199.34 249,201.5C 246.474,194.948 244.474,195.281 243,202.5C 241.907,200.651 240.574,198.984 239,197.5C 237.577,199.345 236.41,201.345 235.5,203.5C 234.5,202.833 233.5,202.167 232.5,201.5C 231.692,203.423 231.192,205.423 231,207.5C 229.385,206.614 227.885,205.614 226.5,204.5C 226.629,200.515 228.463,199.182 232,200.5C 232.465,199.069 233.299,197.903 234.5,197C 237.449,196.573 240.283,195.739 243,194.5C 245.807,195.782 248.474,195.449 251,193.5C 252.301,193.639 253.134,194.305 253.5,195.5 Z"/></g>
<g><path style="opacity:1" fill="#ca954e" d="M 253.5,195.5 C 253.833,195.5 254.167,195.5 254.5,195.5C 254.687,197.564 255.187,199.564 256,201.5C 257.351,199.981 258.851,198.648 260.5,197.5C 261.167,199.167 261.833,200.833 262.5,202.5C 264.276,200.553 266.276,200.22 268.5,201.5C 267.515,203.098 267.349,204.765 268,206.5C 269.584,205.139 271.418,204.472 273.5,204.5C 273.579,205.93 273.246,207.264 272.5,208.5C 274.833,209.167 277.167,209.833 279.5,210.5C 278.833,211.5 278.167,212.5 277.5,213.5C 279.5,214.333 281.5,215.167 283.5,216C 282.956,216.717 282.289,217.217 281.5,217.5C 276.408,217.095 271.408,216.095 266.5,214.5C 267.718,213.197 267.385,212.197 265.5,211.5C 260.607,209.2 255.607,207.367 250.5,206C 249.333,205.5 248.5,204.667 248,203.5C 247.517,204.448 247.351,205.448 247.5,206.5C 244.518,206.037 241.518,205.704 238.5,205.5C 238.5,206.5 238.5,207.5 238.5,208.5C 236.234,208.141 234.401,208.808 233,210.5C 230.959,209.577 228.792,209.244 226.5,209.5C 226.374,212.558 224.874,212.891 222,210.5C 221.349,212.235 221.515,213.902 222.5,215.5C 220.604,216.466 218.604,216.799 216.5,216.5C 216.34,214.801 216.506,213.134 217,211.5C 219.39,210.109 221.057,208.109 222,205.5C 223.356,204.62 224.856,204.286 226.5,204.5C 227.885,205.614 229.385,206.614 231,207.5C 231.192,205.423 231.692,203.423 232.5,201.5C 233.5,202.167 234.5,202.833 235.5,203.5C 236.41,201.345 237.577,199.345 239,197.5C 240.574,198.984 241.907,200.651 243,202.5C 244.474,195.281 246.474,194.948 249,201.5C 250.332,199.34 251.832,197.34 253.5,195.5 Z"/></g>
<g><path style="opacity:1" fill="#e1ad7a" d="M 289.5,225.5 C 287.5,225.5 285.5,225.5 283.5,225.5C 284.66,224.735 285.66,223.735 286.5,222.5C 284.453,220.985 282.119,220.151 279.5,220C 280.381,219.292 281.047,218.458 281.5,217.5C 282.289,217.217 282.956,216.717 283.5,216C 281.5,215.167 279.5,214.333 277.5,213.5C 278.167,212.5 278.833,211.5 279.5,210.5C 277.167,209.833 274.833,209.167 272.5,208.5C 273.246,207.264 273.579,205.93 273.5,204.5C 271.418,204.472 269.584,205.139 268,206.5C 267.349,204.765 267.515,203.098 268.5,201.5C 266.276,200.22 264.276,200.553 262.5,202.5C 261.833,200.833 261.167,199.167 260.5,197.5C 258.851,198.648 257.351,199.981 256,201.5C 255.187,199.564 254.687,197.564 254.5,195.5C 255.416,195.018 256.416,194.685 257.5,194.5C 260.266,195.967 263.266,196.8 266.5,197C 268.483,198.889 270.816,200.222 273.5,201C 274.337,202.011 274.67,203.178 274.5,204.5C 278.107,204.379 280.273,206.045 281,209.5C 282,210.167 283,210.833 284,211.5C 286.355,215.934 288.189,220.6 289.5,225.5 Z"/></g>
<g><path style="opacity:1" fill="#a98e3d" d="M 281.5,217.5 C 281.047,218.458 280.381,219.292 279.5,220C 282.119,220.151 284.453,220.985 286.5,222.5C 285.66,223.735 284.66,224.735 283.5,225.5C 283.062,225.435 282.728,225.601 282.5,226C 283.571,226.852 284.571,227.685 285.5,228.5C 280.489,228.666 275.489,228.499 270.5,228C 273.016,225.317 275.683,222.817 278.5,220.5C 274.083,218.296 269.417,217.296 264.5,217.5C 264.5,216.167 264.5,214.833 264.5,213.5C 260.873,211.617 257.04,209.951 253,208.5C 250.849,208.773 248.849,209.439 247,210.5C 245.846,209.257 244.512,208.257 243,207.5C 239.524,211.654 235.024,213.82 229.5,214C 228.911,215.873 229.578,217.54 231.5,219C 227.21,219.923 222.877,220.423 218.5,220.5C 217.326,219.486 216.66,218.153 216.5,216.5C 218.604,216.799 220.604,216.466 222.5,215.5C 221.515,213.902 221.349,212.235 222,210.5C 224.874,212.891 226.374,212.558 226.5,209.5C 228.792,209.244 230.959,209.577 233,210.5C 234.401,208.808 236.234,208.141 238.5,208.5C 238.5,207.5 238.5,206.5 238.5,205.5C 241.518,205.704 244.518,206.037 247.5,206.5C 247.351,205.448 247.517,204.448 248,203.5C 248.5,204.667 249.333,205.5 250.5,206C 255.607,207.367 260.607,209.2 265.5,211.5C 267.385,212.197 267.718,213.197 266.5,214.5C 271.408,216.095 276.408,217.095 281.5,217.5 Z"/></g>
<g><path style="opacity:1" fill="#848931" d="M 285.5,228.5 C 286.376,228.369 287.043,228.702 287.5,229.5C 285.855,230.696 284.189,231.696 282.5,232.5C 278.232,231.627 273.898,231.294 269.5,231.5C 268.048,230.698 266.382,230.198 264.5,230C 266.734,229.031 268.734,227.698 270.5,226C 268.469,224.173 265.469,223.006 261.5,222.5C 259.967,220.711 258.967,218.711 258.5,216.5C 255.624,216.073 252.791,215.406 250,214.5C 249.055,214.905 248.388,215.572 248,216.5C 247.29,215.027 246.124,214.36 244.5,214.5C 244.5,215.5 244.5,216.5 244.5,217.5C 240.771,218.013 237.104,218.846 233.5,220C 234.167,220.667 234.833,221.333 235.5,222C 233.833,222.333 232.167,222.667 230.5,223C 234.183,225.627 238.183,227.794 242.5,229.5C 242.672,230.492 242.338,231.158 241.5,231.5C 232.475,231.168 223.475,231.502 214.5,232.5C 217.664,235.5 221.497,236.834 226,236.5C 231.038,236.326 235.871,235.326 240.5,233.5C 239.221,236.652 236.888,238.652 233.5,239.5C 231.513,240.164 229.846,241.331 228.5,243C 231.153,245.13 234.82,246.297 239.5,246.5C 240.167,248.5 240.833,250.5 241.5,252.5C 244.119,252.232 246.619,252.565 249,253.5C 251.307,251.546 253.307,251.546 255,253.5C 259.726,252.53 264.226,251.03 268.5,249C 268.043,248.586 267.709,248.086 267.5,247.5C 271.061,246.239 274.728,245.406 278.5,245C 274.793,244.263 271.127,243.429 267.5,242.5C 265.833,241.833 264.167,241.167 262.5,240.5C 263.952,239.698 265.618,239.198 267.5,239C 265.048,238.71 262.715,238.044 260.5,237C 269.494,236.5 278.494,236.334 287.5,236.5C 288.738,236.81 288.738,237.31 287.5,238C 285.833,238.333 284.167,238.667 282.5,239C 288.407,243.049 287.741,245.049 280.5,245C 280.833,245.333 281.167,245.667 281.5,246C 276.041,245.852 271.374,247.518 267.5,251C 267.833,251.333 268.167,251.667 268.5,252C 266.121,252.716 264.121,253.883 262.5,255.5C 261.5,255.5 260.5,255.5 259.5,255.5C 259.5,256.5 259.5,257.5 259.5,258.5C 255.908,258.286 252.408,257.619 249,256.5C 246.432,257.714 244.265,257.381 242.5,255.5C 241.914,255.709 241.414,256.043 241,256.5C 240.51,255.207 240.343,253.873 240.5,252.5C 239.5,252.5 238.5,252.5 237.5,252.5C 237.5,251.167 237.5,249.833 237.5,248.5C 234.784,248.322 232.117,247.822 229.5,247C 229.833,246.667 230.167,246.333 230.5,246C 226.986,243.287 222.986,242.12 218.5,242.5C 216.999,240.634 214.999,239.301 212.5,238.5C 211.559,236.95 210.893,235.284 210.5,233.5C 213.205,233.62 213.872,232.62 212.5,230.5C 214.274,229.813 215.941,228.98 217.5,228C 213.573,224.491 214.573,222.825 220.5,223C 219.619,222.292 218.953,221.458 218.5,220.5C 222.877,220.423 227.21,219.923 231.5,219C 229.578,217.54 228.911,215.873 229.5,214C 235.024,213.82 239.524,211.654 243,207.5C 244.512,208.257 245.846,209.257 247,210.5C 248.849,209.439 250.849,208.773 253,208.5C 257.04,209.951 260.873,211.617 264.5,213.5C 264.5,214.833 264.5,216.167 264.5,217.5C 269.417,217.296 274.083,218.296 278.5,220.5C 275.683,222.817 273.016,225.317 270.5,228C 275.489,228.499 280.489,228.666 285.5,228.5 Z"/></g>
<g><path style="opacity:1" fill="#caab72" d="M 216.5,216.5 C 216.66,218.153 217.326,219.486 218.5,220.5C 218.953,221.458 219.619,222.292 220.5,223C 214.573,222.825 213.573,224.491 217.5,228C 215.941,228.98 214.274,229.813 212.5,230.5C 213.872,232.62 213.205,233.62 210.5,233.5C 211.138,227.989 212.304,222.655 214,217.5C 214.671,216.748 215.504,216.414 216.5,216.5 Z"/></g>
<g><path style="opacity:1" fill="#508323" d="M 269.5,231.5 C 265.889,232.653 262.223,233.653 258.5,234.5C 257.918,227.031 253.918,224.198 246.5,226C 245.619,226.708 244.953,227.542 244.5,228.5C 243.833,228.833 243.167,229.167 242.5,229.5C 238.183,227.794 234.183,225.627 230.5,223C 232.167,222.667 233.833,222.333 235.5,222C 234.833,221.333 234.167,220.667 233.5,220C 237.104,218.846 240.771,218.013 244.5,217.5C 244.5,216.5 244.5,215.5 244.5,214.5C 246.124,214.36 247.29,215.027 248,216.5C 248.388,215.572 249.055,214.905 250,214.5C 252.791,215.406 255.624,216.073 258.5,216.5C 258.967,218.711 259.967,220.711 261.5,222.5C 265.469,223.006 268.469,224.173 270.5,226C 268.734,227.698 266.734,229.031 264.5,230C 266.382,230.198 268.048,230.698 269.5,231.5 Z"/></g>
<g><path style="opacity:1" fill="#2f2982" d="M 258.5,234.5 C 258.567,235.959 258.234,237.292 257.5,238.5C 257.027,239.906 256.027,240.573 254.5,240.5C 259.446,233.718 257.946,229.052 250,226.5C 248.061,226.954 246.228,227.621 244.5,228.5C 244.953,227.542 245.619,226.708 246.5,226C 253.918,224.198 257.918,227.031 258.5,234.5 Z"/></g>
<g><path style="opacity:1" fill="#c5c5e0" d="M 254.5,240.5 C 250.247,241.193 246.581,240.193 243.5,237.5C 243.368,234.43 243.701,231.43 244.5,228.5C 246.228,227.621 248.061,226.954 250,226.5C 257.946,229.052 259.446,233.718 254.5,240.5 Z"/></g>
<g><path style="opacity:1" fill="#68882a" d="M 241.5,231.5 C 241.5,232.167 241.5,232.833 241.5,233.5C 241.167,233.5 240.833,233.5 240.5,233.5C 235.871,235.326 231.038,236.326 226,236.5C 221.497,236.834 217.664,235.5 214.5,232.5C 223.475,231.502 232.475,231.168 241.5,231.5 Z"/></g>
<g><path style="opacity:1" fill="#46357d" d="M 244.5,228.5 C 243.701,231.43 243.368,234.43 243.5,237.5C 241.896,236.713 241.229,235.38 241.5,233.5C 241.5,232.833 241.5,232.167 241.5,231.5C 242.338,231.158 242.672,230.492 242.5,229.5C 243.167,229.167 243.833,228.833 244.5,228.5 Z"/></g>
<g><path style="opacity:1" fill="#9c8a36" d="M 269.5,231.5 C 273.898,231.294 278.232,231.627 282.5,232.5C 284.754,233.124 286.421,234.457 287.5,236.5C 278.494,236.334 269.494,236.5 260.5,237C 262.715,238.044 265.048,238.71 267.5,239C 265.618,239.198 263.952,239.698 262.5,240.5C 260.95,239.559 259.284,238.893 257.5,238.5C 258.234,237.292 258.567,235.959 258.5,234.5C 262.223,233.653 265.889,232.653 269.5,231.5 Z"/></g>
<g><path style="opacity:1" fill="#6866b0" d="M 248.5,230.5 C 250.288,230.215 251.955,230.548 253.5,231.5C 255.604,235.925 253.937,237.759 248.5,237C 247.833,236.333 247.167,235.667 246.5,235C 246.164,233.371 246.83,231.871 248.5,230.5 Z"/></g>
<g><path style="opacity:1" fill="#4d3f8f" d="M 243.5,237.5 C 246.581,240.193 250.247,241.193 254.5,240.5C 252.545,242.326 250.212,242.826 247.5,242C 245.249,241.252 243.916,239.752 243.5,237.5 Z"/></g>
<g><path style="opacity:1" fill="#bd883b" d="M 240.5,233.5 C 240.833,233.5 241.167,233.5 241.5,233.5C 241.229,235.38 241.896,236.713 243.5,237.5C 243.916,239.752 245.249,241.252 247.5,242C 250.212,242.826 252.545,242.326 254.5,240.5C 256.027,240.573 257.027,239.906 257.5,238.5C 259.284,238.893 260.95,239.559 262.5,240.5C 264.167,241.167 265.833,241.833 267.5,242.5C 263.438,245.176 258.271,247.176 252,248.5C 245.044,247.025 238.877,244.025 233.5,239.5C 236.888,238.652 239.221,236.652 240.5,233.5 Z"/></g>
<g><path style="opacity:1" fill="#9b8831" d="M 233.5,239.5 C 238.877,244.025 245.044,247.025 252,248.5C 258.271,247.176 263.438,245.176 267.5,242.5C 271.127,243.429 274.793,244.263 278.5,245C 274.728,245.406 271.061,246.239 267.5,247.5C 267.709,248.086 268.043,248.586 268.5,249C 264.226,251.03 259.726,252.53 255,253.5C 253.307,251.546 251.307,251.546 249,253.5C 246.619,252.565 244.119,252.232 241.5,252.5C 240.833,250.5 240.167,248.5 239.5,246.5C 234.82,246.297 231.153,245.13 228.5,243C 229.846,241.331 231.513,240.164 233.5,239.5 Z"/></g>
<g><path style="opacity:1" fill="#789a4a" d="M 283.5,225.5 C 285.5,225.5 287.5,225.5 289.5,225.5C 289.714,227.144 289.38,228.644 288.5,230C 289.894,230.956 290.561,232.289 290.5,234C 289.882,239.693 288.716,245.193 287,250.5C 285.13,252.248 283.963,254.415 283.5,257C 282.207,257.49 280.873,257.657 279.5,257.5C 280.113,260.969 278.779,262.969 275.5,263.5C 275.675,261.379 275.341,259.379 274.5,257.5C 274.389,256.883 274.056,256.383 273.5,256C 270.225,255.071 267.225,255.571 264.5,257.5C 263.478,257.145 262.811,256.478 262.5,255.5C 264.121,253.883 266.121,252.716 268.5,252C 268.167,251.667 267.833,251.333 267.5,251C 271.374,247.518 276.041,245.852 281.5,246C 281.167,245.667 280.833,245.333 280.5,245C 287.741,245.049 288.407,243.049 282.5,239C 284.167,238.667 285.833,238.333 287.5,238C 288.738,237.31 288.738,236.81 287.5,236.5C 286.421,234.457 284.754,233.124 282.5,232.5C 284.189,231.696 285.855,230.696 287.5,229.5C 287.043,228.702 286.376,228.369 285.5,228.5C 284.571,227.685 283.571,226.852 282.5,226C 282.728,225.601 283.062,225.435 283.5,225.5 Z"/></g>
<g><path style="opacity:1" fill="#7ca964" d="M 212.5,238.5 C 214.999,239.301 216.999,240.634 218.5,242.5C 216.616,242.712 215.283,243.712 214.5,245.5C 216.22,246.934 218.22,247.767 220.5,248C 219.944,248.383 219.611,248.883 219.5,249.5C 218.522,249.811 217.855,250.478 217.5,251.5C 219.766,252.314 222.1,252.814 224.5,253C 222.561,254.432 221.228,256.265 220.5,258.5C 219.279,257.972 218.113,257.305 217,256.5C 216.539,252.919 215.039,249.919 212.5,247.5C 212.833,246.833 213.167,246.167 213.5,245.5C 212.289,244.126 211.289,242.626 210.5,241C 210.639,239.699 211.305,238.866 212.5,238.5 Z"/></g>
<g><path style="opacity:1" fill="#688a2d" d="M 218.5,242.5 C 222.986,242.12 226.986,243.287 230.5,246C 230.167,246.333 229.833,246.667 229.5,247C 232.117,247.822 234.784,248.322 237.5,248.5C 237.5,249.833 237.5,251.167 237.5,252.5C 238.5,252.5 239.5,252.5 240.5,252.5C 240.343,253.873 240.51,255.207 241,256.5C 241.414,256.043 241.914,255.709 242.5,255.5C 244.265,257.381 246.432,257.714 249,256.5C 252.408,257.619 255.908,258.286 259.5,258.5C 259.5,257.5 259.5,256.5 259.5,255.5C 260.5,255.5 261.5,255.5 262.5,255.5C 262.811,256.478 263.478,257.145 264.5,257.5C 267.225,255.571 270.225,255.071 273.5,256C 274.056,256.383 274.389,256.883 274.5,257.5C 271.306,257.27 268.306,257.936 265.5,259.5C 264.446,259.32 263.446,258.987 262.5,258.5C 259.962,260.131 257.295,261.464 254.5,262.5C 251.722,262.461 248.888,262.128 246,261.5C 245.667,262.167 245.333,262.833 245,263.5C 243.562,262.1 242.729,260.433 242.5,258.5C 238.147,258.235 233.813,257.735 229.5,257C 231.792,255.71 233.792,254.043 235.5,252C 230.202,250.846 224.869,250.013 219.5,249.5C 219.611,248.883 219.944,248.383 220.5,248C 218.22,247.767 216.22,246.934 214.5,245.5C 215.283,243.712 216.616,242.712 218.5,242.5 Z"/></g>
<g><path style="opacity:1" fill="#56953e" d="M 219.5,249.5 C 224.869,250.013 230.202,250.846 235.5,252C 233.792,254.043 231.792,255.71 229.5,257C 233.813,257.735 238.147,258.235 242.5,258.5C 242.729,260.433 243.562,262.1 245,263.5C 245.333,262.833 245.667,262.167 246,261.5C 248.888,262.128 251.722,262.461 254.5,262.5C 257.295,261.464 259.962,260.131 262.5,258.5C 263.446,258.987 264.446,259.32 265.5,259.5C 268.306,257.936 271.306,257.27 274.5,257.5C 275.341,259.379 275.675,261.379 275.5,263.5C 274.126,266.355 271.793,267.855 268.5,268C 266.957,270.948 264.79,271.782 262,270.5C 260.883,272.124 259.383,273.124 257.5,273.5C 252.657,273.437 247.824,273.437 243,273.5C 237.918,271.326 232.751,269.16 227.5,267C 226.663,265.989 226.33,264.822 226.5,263.5C 222.808,263.676 220.808,262.009 220.5,258.5C 221.228,256.265 222.561,254.432 224.5,253C 222.1,252.814 219.766,252.314 217.5,251.5C 217.855,250.478 218.522,249.811 219.5,249.5 Z"/></g>
<g><path style="opacity:1" fill="#082131" d="M -0.5,264.5 C 2.86642,308.433 16.3664,349.1 40,386.5C 86.5381,453.864 150.705,491.531 232.5,499.5C 154.833,499.5 77.1667,499.5 -0.5,499.5C -0.5,421.167 -0.5,342.833 -0.5,264.5 Z"/></g>
<g><path style="opacity:1" fill="#082131" d="M 499.5,264.5 C 499.5,342.833 499.5,421.167 499.5,499.5C 421.833,499.5 344.167,499.5 266.5,499.5C 305.618,496.185 342.285,484.685 376.5,465C 450.467,418.597 491.467,351.764 499.5,264.5 Z"/></g>
<g><path style="opacity:1" fill="#046937" d="M 124.5,292.5 C 207.501,292.333 290.501,292.5 373.5,293C 393.833,306.5 414.167,320 434.5,333.5C 414.167,347 393.833,360.5 373.5,374C 290.5,374.667 207.5,374.667 124.5,374C 104.29,360.735 84.2903,347.235 64.5,333.5C 84.5179,319.808 104.518,306.141 124.5,292.5 Z"/></g>
<g><path style="opacity:1" fill="#c29675" d="M 403.5,355.5 C 406.114,355.852 407.781,357.352 408.5,360C 404.478,362.593 400.978,365.76 398,369.5C 394.775,375.859 396.608,378.692 403.5,378C 408.649,373.343 414.483,369.843 421,367.5C 429.052,368.876 432.386,373.542 431,381.5C 428.424,390.409 422.757,396.409 414,399.5C 412.153,398.831 410.986,397.497 410.5,395.5C 414.452,392.722 418.286,389.722 422,386.5C 424.855,382.982 425.021,379.482 422.5,376C 421.167,375.333 419.833,375.333 418.5,376C 414.167,379 409.833,382 405.5,385C 397.868,387.768 392.701,385.268 390,377.5C 389.195,373.091 390.195,369.091 393,365.5C 396.245,361.813 399.745,358.48 403.5,355.5 Z"/></g>
<g><path style="opacity:1" fill="#c39776" d="M 90.5,357.5 C 103.139,358.805 110.139,365.805 111.5,378.5C 109.5,378.833 107.5,379.167 105.5,379.5C 104.91,373.15 101.91,368.317 96.5,365C 92.9049,363.927 90.9049,365.261 90.5,369C 91.9091,373.987 93.7424,378.82 96,383.5C 97.3131,394.519 92.4797,399.019 81.5,397C 72.3841,392.092 67.7174,384.592 67.5,374.5C 69.4086,373.652 71.4086,373.318 73.5,373.5C 73.6167,380.234 76.2834,385.734 81.5,390C 85.4817,391.421 88.1484,390.254 89.5,386.5C 86.7709,380.549 84.7709,374.382 83.5,368C 83.2919,362.723 85.6253,359.223 90.5,357.5 Z"/></g>
<g><path style="opacity:1" fill="#c39776" d="M 375.5,385.5 C 377.534,386.548 378.867,388.214 379.5,390.5C 374.281,394.704 369.114,399.037 364,403.5C 364.121,406.664 365.621,409.164 368.5,411C 369.5,411.667 370.5,411.667 371.5,411C 375.689,407.31 380.022,403.81 384.5,400.5C 385.648,402.149 386.981,403.649 388.5,405C 383.954,409.214 379.121,413.047 374,416.5C 374.673,420.374 376.839,423.374 380.5,425.5C 386.347,421.409 392.013,417.076 397.5,412.5C 399.167,413.5 400.5,414.833 401.5,416.5C 394.149,423.181 386.483,429.514 378.5,435.5C 369.818,425.48 361.484,415.147 353.5,404.5C 360.853,398.144 368.186,391.811 375.5,385.5 Z"/></g>
<g><path style="opacity:1" fill="#c29675" d="M 123.5,386.5 C 126.116,387.48 128.449,388.98 130.5,391C 124.389,398.056 118.889,405.556 114,413.5C 112.957,418.915 114.79,423.081 119.5,426C 122.964,426.817 126.298,426.483 129.5,425C 135.333,417.833 141.167,410.667 147,403.5C 149.124,404.622 150.957,406.122 152.5,408C 147.075,415.514 141.409,422.847 135.5,430C 125.398,436.759 116.565,435.259 109,425.5C 105.667,419.167 105.667,412.833 109,406.5C 114.097,399.951 118.93,393.285 123.5,386.5 Z"/></g>
<g><path style="opacity:1" fill="#c39776" d="M 336.5,412.5 C 337.376,412.369 338.043,412.702 338.5,413.5C 344.628,424.921 350.628,436.421 356.5,448C 354.664,449.419 352.664,450.586 350.5,451.5C 343.928,440.028 337.595,428.361 331.5,416.5C 333.015,414.918 334.681,413.584 336.5,412.5 Z"/></g>
<g><path style="opacity:1" fill="#c39776" d="M 165.5,415.5 C 172.913,418.036 180.246,420.869 187.5,424C 194.283,427.401 196.116,432.567 193,439.5C 191.255,441.749 189.088,443.416 186.5,444.5C 189.827,448.472 190.327,452.806 188,457.5C 186.891,459.815 185.057,461.315 182.5,462C 179.5,462.667 176.5,462.667 173.5,462C 165.73,459.42 158.397,456.086 151.5,452C 156.272,439.849 160.938,427.682 165.5,415.5 Z"/></g>
<g><path style="opacity:1" fill="#0e2432" d="M 170.5,423.5 C 176.218,425.126 181.385,427.793 186,431.5C 187.338,436.329 185.504,438.662 180.5,438.5C 176.321,437.774 172.321,436.44 168.5,434.5C 168.167,433.833 167.833,433.167 167.5,432.5C 168.704,429.556 169.704,426.556 170.5,423.5 Z"/></g>
<g><path style="opacity:1" fill="#c39776" d="M 298.5,427.5 C 320.232,427.391 328.065,437.724 322,458.5C 320.167,460.333 318.333,462.167 316.5,464C 308.364,467.395 300.03,470.228 291.5,472.5C 287.076,459.385 283.41,446.052 280.5,432.5C 286.745,431.357 292.745,429.69 298.5,427.5 Z"/></g>
<g><path style="opacity:1" fill="#c29675" d="M 217.5,432.5 C 225.556,431.577 232.889,433.41 239.5,438C 238.458,439.918 237.292,441.751 236,443.5C 231.178,439.505 225.678,438.005 219.5,439C 216.615,440.933 215.948,443.433 217.5,446.5C 223.088,449.423 228.754,452.256 234.5,455C 240.049,464.236 237.716,470.569 227.5,474C 218.746,475.228 211.079,472.895 204.5,467C 205.667,465.167 206.833,463.333 208,461.5C 214.79,468.08 222.123,469.08 230,464.5C 230.63,462.097 229.797,460.263 227.5,459C 223.5,457.333 219.5,455.667 215.5,454C 208.704,450.578 206.871,445.411 210,438.5C 212.134,435.847 214.634,433.847 217.5,432.5 Z"/></g>
<g><path style="opacity:1" fill="#bf9474" d="M 255.5,434.5 C 258.167,434.5 260.833,434.5 263.5,434.5C 264.097,448.171 264.763,461.837 265.5,475.5C 262.833,475.5 260.167,475.5 257.5,475.5C 257.26,461.811 256.594,448.144 255.5,434.5 Z"/></g>
<g><path style="opacity:1" fill="#0c2332" d="M 296.5,434.5 C 313.364,432.516 319.531,439.516 315,455.5C 309.551,460.658 303.051,463.324 295.5,463.5C 293.915,454.41 291.915,445.41 289.5,436.5C 292.152,436.59 294.485,435.924 296.5,434.5 Z"/></g>
<g><path style="opacity:1" fill="#0f2532" d="M 164.5,439.5 C 170.98,441.323 176.814,444.323 182,448.5C 182.635,450.635 182.301,452.635 181,454.5C 173.434,455.974 166.6,454.307 160.5,449.5C 161.849,446.141 163.182,442.808 164.5,439.5 Z"/></g>
</svg>
